<?xml version="1.0" standalone="no"?>
<!DOCTYPE svg PUBLIC "-//W3C//DTD SVG 20010904//EN"
 "http://www.w3.org/TR/2001/REC-SVG-20010904/DTD/svg10.dtd">
<svg version="1.0" xmlns="http://www.w3.org/2000/svg"
 width="256.000000pt" height="199.000000pt" viewBox="0 0 256.000000 199.000000"
 preserveAspectRatio="xMidYMid meet">

<g transform="translate(0.000000,199.000000) scale(0.100000,-0.100000)"
fill="#000000" stroke="none">
<path d="M1008 1436 c-28 -26 -48 -53 -48 -65 0 -25 1 -25 -39 -5 -25 12 -38
14 -54 6 -21 -10 -21 -11 4 -11 14 -1 38 -12 52 -25 29 -27 67 -97 67 -123 0
-10 -9 1 -19 24 -19 40 -61 73 -96 73 -10 0 -6 -9 15 -27 25 -23 95 -161 86
-170 -1 -2 -20 6 -42 16 -21 10 -57 24 -80 30 -22 6 -60 24 -82 41 -43 31 -54
30 -25 -2 14 -15 14 -18 1 -18 -24 0 -82 22 -100 38 -29 25 -20 -2 10 -30 35
-33 50 -37 150 -49 46 -5 96 -16 110 -23 36 -19 124 -109 97 -100 -11 4 -41
29 -66 56 -25 26 -51 48 -59 48 -11 0 -11 -3 -2 -12 23 -23 12 -26 -25 -7 -45
23 -67 23 -162 0 -86 -20 -73 -31 42 -31 l67 0 -32 -30 c-36 -32 -18 -32 37 2
42 25 70 23 116 -9 37 -27 49 -43 31 -43 -5 0 -22 -11 -38 -25 -34 -30 -68
-32 -109 -7 -55 34 -73 35 -37 2 17 -16 32 -31 32 -32 0 -2 -25 -1 -56 0 -30
2 -72 1 -92 -3 -36 -8 -35 -8 43 -26 84 -20 122 -19 168 5 28 15 36 9 15 -12
-9 -9 -9 -12 1 -12 7 0 37 25 67 55 30 30 60 55 67 55 15 0 -71 -88 -103 -105
-14 -7 -68 -18 -120 -24 -91 -12 -131 -27 -157 -60 -18 -24 -15 -36 5 -19 21
19 112 50 112 39 0 -5 -7 -14 -15 -21 -8 -7 -15 -17 -15 -23 0 -6 10 -1 23 10
26 24 80 53 99 53 7 0 37 11 67 25 30 14 55 24 57 23 8 -8 -59 -145 -83 -170
-15 -15 -21 -28 -14 -28 28 0 72 36 91 75 11 22 20 32 20 22 0 -53 -76 -146
-120 -148 -25 0 -25 -1 -3 -11 16 -8 29 -6 54 6 18 9 33 16 34 16 2 0 5 -12 8
-27 7 -36 97 -114 97 -85 0 11 -16 39 -35 63 -27 35 -35 53 -35 87 0 49 12 54
30 13 12 -31 90 -100 90 -80 0 6 -11 24 -25 41 -36 43 -40 69 -16 116 30 60
26 74 -8 24 -26 -40 -29 -42 -34 -21 -6 24 9 112 25 142 5 9 6 17 4 17 -3 0
-12 -12 -20 -27 -8 -16 -15 -22 -16 -15 0 19 38 89 52 96 11 5 11 7 0 12 -14
7 -52 77 -52 96 1 7 8 1 16 -14 8 -16 17 -28 20 -28 2 0 1 8 -4 18 -16 29 -31
117 -25 141 5 21 8 19 34 -21 34 -50 38 -36 8 24 -24 47 -20 73 16 116 38 45
30 58 -15 22 -21 -17 -45 -46 -51 -65 -16 -44 -29 -35 -29 20 0 35 7 51 35 85
19 23 35 50 35 61 0 10 -1 19 -2 19 -2 0 -24 -20 -50 -44z"/>
<path d="M860 1460 c0 -5 10 -10 23 -10 12 0 35 -7 50 -15 25 -13 31 -13 54 2
l26 17 -24 7 c-38 11 -129 10 -129 -1z"/>
<path d="M1075 1448 c-4 -13 -17 -34 -30 -48 -24 -27 -45 -63 -45 -78 0 -5 18
8 40 29 22 21 40 45 40 53 0 18 38 46 62 46 10 0 18 5 18 10 0 6 -18 10 -39
10 -32 0 -41 -4 -46 -22z"/>
<path d="M1430 1458 c0 -4 5 -10 10 -13 28 -17 0 -56 -166 -229 -142 -148
-177 -190 -179 -215 -2 -27 14 -49 130 -173 171 -185 291 -299 337 -321 28
-13 61 -17 150 -16 l113 1 -52 13 c-92 22 -142 62 -377 297 l-230 229 165 165
c186 187 236 228 302 246 26 7 47 15 47 19 0 3 -56 6 -125 5 -69 0 -125 -4
-125 -8z"/>
<path d="M800 1282 c0 -20 25 -65 52 -89 25 -24 104 -60 93 -44 -3 6 -12 11
-19 11 -21 0 -98 72 -112 104 -7 17 -13 25 -14 18z"/>
<path d="M1045 1160 c12 -73 24 -93 24 -40 0 26 -6 53 -15 65 -15 19 -15 17
-9 -25z"/>
<path d="M836 1024 c-9 -8 -16 -19 -16 -24 0 -15 31 -40 49 -40 40 0 56 51 22
70 -27 14 -37 13 -55 -6z"/>
<path d="M1052 871 c-13 -58 -12 -70 7 -47 7 8 11 34 9 58 l-3 43 -13 -54z"/>
<path d="M884 831 c-32 -20 -74 -67 -74 -84 0 -5 10 3 22 18 11 15 39 40 61
56 45 32 39 39 -9 10z"/>
<path d="M1000 678 c0 -16 22 -52 48 -81 19 -20 27 -39 27 -67 l0 -40 60 1 60
1 -43 12 c-50 13 -72 37 -72 78 0 21 -12 40 -40 67 -22 21 -40 34 -40 29z"/>
<path d="M954 548 c-6 -23 -18 -35 -44 -44 -33 -12 -30 -13 54 -13 l88 -1 -14
22 c-8 12 -28 32 -44 45 l-30 22 -10 -31z"/>
</g>
</svg>
